<svg xmlns="http://www.w3.org/2000/svg" data-name="Layer 1" viewBox="0 0 1668 1112"><path fill="#d7f9bb" d="M1536.956,622.431c17.8-6.194,28.752-21.073,28.752-21.073s-17.909-4.835-35.709,1.359c-12.56,4.371-21.7,13.06-26,17.8a107.946,107.946,0,0,0,3.371-15.32c4.181-4.6,12.205-14.794,15.26-28.034,4.212-18.257-2.627-35.389-2.627-35.389s-13.667,12.468-17.879,30.724c-2.974,12.893-.439,25.217,1.309,31.35-.284,2.124-.667,4.395-1.172,6.808a61.65,61.65,0,0,0-6.6-23.229c-8.818-16.557-25.265-25.1-25.265-25.1s-2.15,18.3,6.668,34.862c6.626,12.441,17.557,20.354,22.584,23.52a152.063,152.063,0,0,1-10.875,25.841c.284-6.505-.141-18.757-5.793-30.369-8.208-16.863-24.333-25.988-24.333-25.988s-2.816,18.216,5.392,35.079c6.639,13.638,18.452,22.212,22.728,24.994a243.069,243.069,0,0,1-19.136,29.041c1.049-6.411,2.085-18.667-2.18-30.895-6.174-17.7-21.118-28.626-21.118-28.626s-4.934,17.766,1.239,35.464c4.945,14.174,15.508,24,19.521,27.353q-3.479,4.454-7.366,9.085c-4.419,5.259-8.808,10.159-12.98,14.615,1.058-6.358,2.157-18.729-2.15-31.074-6.174-17.7-21.118-28.626-21.118-28.626s-4.934,17.766,1.239,35.464c4.846,13.89,15.09,23.608,19.276,27.147-6.809,7.125-12.885,12.946-17.351,17.064h5.96c3.881-3.666,8.556-8.238,13.659-13.55,4.605,2.507,17.642,8.731,32.73,8.188,18.85-.677,33.75-11.665,33.75-11.665s-15.661-9.889-34.511-9.211c-11.331.407-21.228,4.538-27.326,7.77,3.868-4.168,7.9-8.7,11.958-13.525q3.885-4.623,7.469-9.218c4.617,2.511,17.643,8.723,32.717,8.182,18.85-.677,33.75-11.665,33.75-11.665s-15.661-9.889-34.511-9.211c-12.28.441-22.88,5.257-28.779,8.561a248.839,248.839,0,0,0,18.827-28.638c4.717,2.551,17.651,8.655,32.6,8.118,18.85-.677,33.75-11.665,33.75-11.665s-15.661-9.889-34.511-9.211c-13.113.471-24.308,5.929-29.911,9.209a157.251,157.251,0,0,0,10.6-24.588C1507.635,625.164,1522.328,627.522,1536.956,622.431Z" class="colorbbf9e7 svgShape"/><path fill="#0e9cbb" d="M177.964,708.1c21.435.77,38.38,13.265,38.38,13.265s-17.81,11.245-39.245,10.475-38.38-13.265-38.38-13.265S156.529,707.326,177.964,708.1Z" class="color0e38bb svgShape"/><path fill="#0e9cbb" d="M150.607,676.634c21.435.77,38.38,13.265,38.38,13.265s-17.81,11.245-39.245,10.475-38.38-13.265-38.38-13.265S129.172,675.864,150.607,676.634Z" class="color0e38bb svgShape"/><path fill="#0e9cbb" d="M125.719,639.295c21.435.77,38.38,13.265,38.38,13.265s-17.81,11.245-39.245,10.475-38.38-13.265-38.38-13.265S104.283,638.524,125.719,639.295Z" class="color0e38bb svgShape"/><path fill="#0e9cbb" d="M216.212,679.881c-7.021,20.126-1.409,40.328-1.409,40.328s16.994-12.427,24.015-32.553,1.409-40.328,1.409-40.328S223.233,659.756,216.212,679.881Z" class="color0e38bb svgShape"/><path fill="#0e9cbb" d="M190.224,649.387c-7.021,20.126-1.409,40.328-1.409,40.328s16.994-12.427,24.015-32.553,1.409-40.328,1.409-40.328S197.245,629.261,190.224,649.387Z" class="color0e38bb svgShape"/><path fill="#0e9cbb" d="M170.292,612.735c-9.334,19.176-6.132,39.891-6.132,39.891s18.336-10.377,27.671-29.553,6.132-39.891,6.132-39.891S179.626,593.558,170.292,612.735Z" class="color0e38bb svgShape"/><path fill="#0e9cbb" d="M155.87,580.032c-10.028,18.828-7.583,39.644-7.583,39.644s18.7-9.71,28.73-28.539,7.583-39.644,7.583-39.644S165.9,561.2,155.87,580.032Z" class="color0e38bb svgShape"/><path fill="#0e9cbb" d="M116.816,597.42c20.242,7.044,32.7,23.964,32.7,23.964s-20.366,5.5-40.608-1.545-32.7-23.964-32.7-23.964S96.574,590.376,116.816,597.42Z" class="color0e38bb svgShape"/><path fill="#0e9cbb" d="M245.488,749.193a2.335,2.335,0,0,1-3.073.075,426.345,426.345,0,0,1-46.974-47.716c-13.945-16.594-25.406-32.991-34.067-48.736-10.882-19.782-17.356-38.606-19.245-55.947a2.322,2.322,0,0,1,4.617-.5c2.285,20.982,13.207,55.75,52.261,102.224a421.058,421.058,0,0,0,46.4,47.139,2.294,2.294,0,0,1,.284,3.248A2.324,2.324,0,0,1,245.488,749.193Z" class="color0e38bb svgShape"/><path fill="#0e9cbb" d="M148.518,563.055c4.79,20.761-2.987,40.244-2.987,40.244S129.988,589.121,125.2,568.36s2.987-40.244,2.987-40.244S143.728,542.294,148.518,563.055Z" class="color0e38bb svgShape"/><path fill="#d7f9bb" d="M184.92,843.068H1522.151s-1.909-208.846-131.949-211.111c0,0-30.38-342.86-317.835-209.313,0,0-94.253-138.287-230.648-73.8,0,0-148.962-122.451-268.344,13.6,0,0-201.716-56.235-249.563,199.245C323.812,561.694,175.557,583.255,184.92,843.068Z" class="colorbbf9e7 svgShape"/><g class="color000000 svgShape" opacity=".7"><rect width="75.238" height="511.939" x="484.566" y="114.919" fill="#db447a" class="color8344db svgShape"/><rect width="75.238" height="245.002" x="292.57" y="381.856" fill="#68c6db" class="color68dbbe svgShape"/><rect width="75.238" height="537.065" x="656.514" y="89.794" fill="#6bc8dc" class="color6b86dc svgShape"/><rect width="71.781" height="346.928" x="823.693" y="279.931" fill="#68c6db" class="color68dbbe svgShape"/><rect width="75.238" height="558.669" x="952.039" y="285.017" fill="#6bc8dc" class="color6b86dc svgShape"/><rect width="75.238" height="249.154" x="1119.217" y="594.532" fill="#db447a" class="color8344db svgShape"/></g><path fill="#1c9cb8" d="M307,721.383h702.014s-1-125.811-69.27-127.175c0,0-15.949-206.543-166.856-126.092,0,0-49.48-83.305-121.085-44.456,0,0-78.2-73.766-140.874,8.193,0,0-105.9-33.877-131.014,120.027C379.914,551.881,302.083,564.869,307,721.383Z" class="color1cb88c svgShape"/><path fill="#fcfcfc" d="M439.023,467.37a3.66,3.66,0,0,1-2.381-6.441c14.063-12.033,30.864-18.134,49.935-18.134a76.877,76.877,0,0,1,20.017,2.485l.14.044,9.457,3.169,5.9-8.018c17.092-22.353,35.939-33.193,57.656-33.193,33.247,0,62.106,26.391,62.394,26.658a3.66,3.66,0,0,1-4.975,5.369c-.265-.245-27.13-24.707-57.418-24.707-19.283,0-36.227,9.9-51.8,30.267l-9.024,12.261-14.44-4.839a70.6,70.6,0,0,0-17.908-2.175c-17.276,0-32.476,5.51-45.176,16.376A3.645,3.645,0,0,1,439.023,467.37Z" class="colorfcfcfc svgShape" opacity=".38"/><path fill="#fcfcfc" d="M906.118,532.058a3.661,3.661,0,0,1-3.4-2.315c-7.181-18.154-15.987-32.363-26.175-42.231-11.511-11.151-24.627-16.571-40.1-16.571a3.66,3.66,0,0,1,0-7.32c17.466,0,32.248,6.1,45.191,18.634,10.94,10.6,20.323,25.669,27.889,44.8a3.662,3.662,0,0,1-3.4,5.007Z" class="colorfcfcfc svgShape" opacity=".38"/><path fill="#fcfcfc" d="M738.083,457.279a3.65,3.65,0,0,1-2.518-1c-15.057-14.275-30.434-21.513-45.7-21.513a3.66,3.66,0,0,1,0-7.32c17.206,0,34.277,7.914,50.74,23.52a3.66,3.66,0,0,1-2.519,6.317Z" class="colorfcfcfc svgShape" opacity=".38"/><path fill="#0e9cbb" d="M650.148,843.686h423.229s-.6-66.956-41.761-67.682c0,0-9.615-109.921-100.594-67.106,0,0-29.831-44.335-73-23.659,0,0-47.146-39.258-84.93,4.36,0,0-63.843-18.029-78.986,63.878C694.107,753.478,647.185,760.39,650.148,843.686Z" class="color0e38bb svgShape"/><path fill="#dc6c94" d="M1128.848,844.139S723.9,618.707,395.705,755.54v88.6Z" class="color9b6cdc svgShape" data-name="&amp;lt;Group&amp;gt;"/><path fill="#db447a" d="M436.969,844.139c8.695-31.733,33.35-93,98.531-126.2q-9.918,1.388-19.821,3.1c-32.958,20.212-81.546,59.415-101.928,123.1Z" class="color8344db svgShape"/><path fill="#db447a" d="M604.647,711.949q-9.8.354-19.63.971c-29.056,14.812-94.009,55.357-118.222,131.219h22.816C498.879,810.219,526.775,741.643,604.647,711.949Z" class="color8344db svgShape"/><path fill="#db447a" d="M661.1,712.042q-8.89-.339-17.823-.48C620.3,722.212,545.9,762.245,519.84,844.139h22.415C551.542,810.046,580.057,739.972,661.1,712.042Z" class="color8344db svgShape"/><path fill="#db447a" d="M708.9,715.244q-7.495-.714-15.038-1.3c-22.883,10.649-95.532,50-120.978,130.2H594.9C603.869,811.1,631.289,743.325,708.9,715.244Z" class="color8344db svgShape"/><path fill="#db447a" d="M751.974,720.386q-6.191-.886-12.427-1.694c-26.707,13.351-90.367,51.947-113.618,125.448H647.54C656.009,812.858,681.408,749.52,751.974,720.386Z" class="color8344db svgShape"/><path fill="#db447a" d="M792.655,727.077q-5.158-.958-10.359-1.866c-29.315,16.149-82.669,53.427-103.322,118.928h21.209C708.038,815.028,730.9,757.32,792.655,727.077Z" class="color8344db svgShape"/><path fill="#db447a" d="M832.309,735.231q-4.5-1.013-9.028-2c-29.641,18.22-73.236,53.543-91.264,110.906h20.807C760,817.475,780.064,766.079,832.309,735.231Z" class="color8344db svgShape"/><path fill="#db447a" d="M871.7,744.848q-4.206-1.107-8.46-2.188c-27.944,19.375-62.715,52.112-78.175,101.479H805.47C811.9,820.135,829.04,775.448,871.7,744.848Z" class="color8344db svgShape"/><path fill="#db447a" d="M911.3,756q-4.267-1.28-8.6-2.541c-24.7,19.565-51.632,49.119-64.6,90.678h20.007C863.759,822.99,877.931,785.256,911.3,756Z" class="color8344db svgShape"/><path fill="#db447a" d="M951.439,768.79q-4.616-1.555-9.315-3.1c-20.388,18.754-40.427,44.527-50.972,78.451h19.607C915.568,826.05,926.776,795.416,951.439,768.79Z" class="color8344db svgShape"/><path fill="#db447a" d="M992.367,783.346q-5.172-1.937-10.5-3.881c-15.445,16.889-29.5,38.262-37.673,64.674H963.4A181.472,181.472,0,0,1,992.367,783.346Z" class="color8344db svgShape"/><path fill="#db447a" d="M1034.3,799.879q-5.831-2.416-11.973-4.889a162.441,162.441,0,0,0-25.09,49.149h18.808A181.3,181.3,0,0,1,1034.3,799.879Z" class="color8344db svgShape"/><path fill="#e26692" d="M114.62,820.773c0,1.615,2.206,3.135,2.381,4.689.182,1.613-1.646,3.395-1.289,4.926.373,1.6,2.9,2.8,3.453,4.293.58,1.574-.752,3.589.006,5.02.809,1.526,3.625,2.28,4.617,3.617a3.172,3.172,0,0,1,.428.822h36.342a3.169,3.169,0,0,1,.428-.822c.991-1.336,3.807-2.09,4.617-3.617.759-1.43-.574-3.446.006-5.02.55-1.492,3.08-2.693,3.453-4.293.357-1.531-1.47-3.312-1.289-4.926.175-1.554,2.381-3.074,2.381-4.689s-2.206-3.135-2.381-4.689c-.182-1.613,1.646-3.395,1.289-4.926-.373-1.6-2.9-2.8-3.453-4.293-.58-1.574.753-3.589-.006-5.02-.809-1.526-3.625-2.28-4.616-3.617-1.072-1.445-.489-3.655-1.748-4.844-1.378-1.3-4.354-1.324-5.92-2.275-1.713-1.041-2.472-3.22-4.365-3.784-1.983-.591-4.441.635-6.567.635s-4.584-1.226-6.567-.635c-1.893.564-2.652,2.743-4.365,3.784-1.566.951-4.542.973-5.92,2.275-1.258,1.189-.676,3.4-1.748,4.844-.991,1.336-3.807,2.091-4.617,3.617-.759,1.43.574,3.446-.006,5.02-.55,1.492-3.08,2.693-3.453,4.293-.357,1.531,1.47,3.312,1.289,4.926C116.827,817.637,114.62,819.158,114.62,820.773Z" class="color8d66e2 svgShape"/><path fill="#e26692" d="M145.482,812.532c0,2.184,2.985,4.241,3.221,6.343.246,2.182-2.226,4.592-1.743,6.663.5,2.165,3.928,3.789,4.671,5.806.784,2.129-1.018,4.855.008,6.79,1.095,2.064,4.9,3.085,6.245,4.892a4.291,4.291,0,0,1,.579,1.112h49.159a4.287,4.287,0,0,1,.579-1.112c1.341-1.807,5.15-2.828,6.245-4.892,1.026-1.935-.776-4.662.009-6.791.743-2.018,4.166-3.642,4.671-5.807.483-2.071-1.989-4.481-1.743-6.663.237-2.1,3.221-4.159,3.221-6.343s-2.985-4.241-3.221-6.343c-.246-2.182,2.226-4.592,1.743-6.663-.5-2.165-3.928-3.789-4.671-5.806-.784-2.129,1.018-4.855-.008-6.79-1.095-2.064-4.9-3.085-6.245-4.892-1.45-1.954-.662-4.944-2.364-6.553-1.863-1.761-5.889-1.791-8.008-3.078-2.317-1.408-3.344-4.355-5.9-5.118-2.682-.8-6.008.859-8.883.859s-6.2-1.658-8.883-.859c-2.561.763-3.587,3.71-5.9,5.118-2.118,1.287-6.144,1.317-8.008,3.078-1.7,1.608-.914,4.6-2.364,6.553-1.341,1.807-5.15,2.828-6.245,4.892-1.026,1.935.776,4.662-.009,6.791-.743,2.018-4.166,3.642-4.671,5.807-.483,2.071,1.989,4.481,1.744,6.663C148.466,808.291,145.482,810.348,145.482,812.532Z" class="color8d66e2 svgShape"/><path fill="#6bc8dc" d="M282.511,844.139V618.561a13.488,13.488,0,0,0-13.449-13.449H217.957a13.488,13.488,0,0,0-13.449,13.449V844.139Z" class="color6b86dc svgShape"/><rect width="55.189" height="3.658" x="216.563" y="643.145" fill="#55b2c6" class="color5576c6 svgShape"/><rect width="55.189" height="3.658" x="216.563" y="653.406" fill="#55b2c6" class="color5576c6 svgShape"/><rect width="55.189" height="3.658" x="216.563" y="634.027" fill="#55b2c6" class="color5576c6 svgShape"/><rect width="55.189" height="3.658" x="216.563" y="675.305" fill="#55b2c6" class="color5576c6 svgShape"/><rect width="55.189" height="3.658" x="216.563" y="685.566" fill="#55b2c6" class="color5576c6 svgShape"/><rect width="55.189" height="3.658" x="216.563" y="666.187" fill="#55b2c6" class="color5576c6 svgShape"/><rect width="55.189" height="3.658" x="216.563" y="707.465" fill="#55b2c6" class="color5576c6 svgShape"/><rect width="55.189" height="3.658" x="216.563" y="717.726" fill="#55b2c6" class="color5576c6 svgShape"/><rect width="55.189" height="3.658" x="216.563" y="698.347" fill="#55b2c6" class="color5576c6 svgShape"/><rect width="55.189" height="3.658" x="216.563" y="739.625" fill="#55b2c6" class="color5576c6 svgShape"/><rect width="55.189" height="3.658" x="216.563" y="749.885" fill="#55b2c6" class="color5576c6 svgShape"/><rect width="55.189" height="3.658" x="216.563" y="730.506" fill="#55b2c6" class="color5576c6 svgShape"/><rect width="55.189" height="3.658" x="216.563" y="771.785" fill="#55b2c6" class="color5576c6 svgShape"/><rect width="55.189" height="3.658" x="216.563" y="782.045" fill="#55b2c6" class="color5576c6 svgShape"/><rect width="55.189" height="3.658" x="216.563" y="762.666" fill="#55b2c6" class="color5576c6 svgShape"/><rect width="55.189" height="3.658" x="216.563" y="803.944" fill="#55b2c6" class="color5576c6 svgShape"/><rect width="55.189" height="3.658" x="216.563" y="814.205" fill="#55b2c6" class="color5576c6 svgShape"/><rect width="55.189" height="3.658" x="216.563" y="794.826" fill="#55b2c6" class="color5576c6 svgShape"/><polygon fill="#8d2b4e" points="360.125 694.547 253.709 694.547 228.338 736.086 334.38 736.086 334.38 736.086 334.754 736.086 360.125 694.547" class="color552b8d svgShape"/><polygon fill="#e8b8c9" points="227.964 736.086 227.964 844.139 334.38 844.139 334.38 736.086 228.338 736.086 227.964 736.086" class="colorcbb8e8 svgShape"/><polygon fill="#cc8da4" points="401.665 694.547 371.101 694.547 360.125 694.547 334.754 736.086 334.38 736.086 334.38 844.139 427.036 844.139 427.036 736.086 401.665 694.547" class="colora28dcc svgShape"/><rect width="27.02" height="58.905" x="354.884" y="785.234" fill="#b26f87" class="color836fb2 svgShape"/><rect width="27.02" height="58.905" x="388.021" y="785.234" fill="#b26f87" class="color836fb2 svgShape"/><rect width="9.391" height="74.732" x="238.458" y="769.408" fill="#b26f87" class="color836fb2 svgShape" opacity=".34"/><rect width="9.391" height="74.732" x="256.993" y="769.408" fill="#b26f87" class="color836fb2 svgShape" opacity=".34"/><rect width="9.391" height="74.732" x="275.527" y="769.408" fill="#b26f87" class="color836fb2 svgShape" opacity=".34"/><rect width="9.391" height="74.732" x="294.062" y="769.408" fill="#b26f87" class="color836fb2 svgShape" opacity=".34"/><rect width="9.391" height="74.732" x="312.596" y="769.408" fill="#b26f87" class="color836fb2 svgShape" opacity=".34"/><polygon fill="#fff" points="138.262 820.852 138.262 824.747 138.262 828.641 138.262 844.139 145.415 844.139 145.415 828.641 166.376 828.641 166.376 844.139 173.528 844.139 173.528 828.641 194.489 828.641 194.489 844.139 201.642 844.139 201.642 828.641 222.603 828.641 222.603 844.139 229.755 844.139 229.755 828.641 250.716 828.641 250.716 844.139 257.869 844.139 257.869 828.641 278.83 828.641 278.83 844.139 285.983 844.139 285.983 828.641 306.944 828.641 306.944 844.139 314.096 844.139 314.096 828.641 335.057 828.641 335.057 844.139 342.21 844.139 342.21 828.641 342.21 824.747 342.21 820.852 138.262 820.852" class="colorffffff svgShape"/><polygon fill="#fff" points="1033.332 820.852 1033.332 824.747 1033.332 828.641 1033.332 844.139 1040.485 844.139 1040.485 828.641 1061.445 828.641 1061.445 844.139 1068.598 844.139 1068.598 828.641 1089.559 828.641 1089.559 844.139 1096.712 844.139 1096.712 828.641 1117.673 828.641 1117.673 844.139 1124.825 844.139 1124.825 828.641 1145.786 828.641 1145.786 844.139 1152.939 844.139 1152.939 828.641 1173.9 828.641 1173.9 844.139 1181.052 844.139 1181.052 828.641 1202.013 828.641 1202.013 844.139 1209.166 844.139 1209.166 828.641 1230.127 828.641 1230.127 844.139 1237.28 844.139 1237.28 828.641 1237.28 824.747 1237.28 820.852 1033.332 820.852" class="colorffffff svgShape"/><circle cx="598.758" cy="111.862" r="13.01" fill="#6bc8dc" class="color6b86dc svgShape" opacity=".16"/><circle cx="1492.658" cy="325.434" r="13.01" fill="#6bc8dc" class="color6b86dc svgShape" opacity=".16"/><circle cx="1565.74" cy="450.668" r="26.052" fill="#6bc8dc" class="color6b86dc svgShape" opacity=".16"/><circle cx="125.286" cy="478.958" r="26.052" fill="#6bc8dc" class="color6b86dc svgShape" opacity=".16"/><circle cx="301.988" cy="229.944" r="13.01" fill="#6bc8dc" class="color6b86dc svgShape" opacity=".16"/><circle cx="846.523" cy="148.025" r="22.28" fill="#6bc8dc" class="color6b86dc svgShape" opacity=".16"/><circle cx="1184.893" cy="92.639" r="22.28" fill="#6bc8dc" class="color6b86dc svgShape" opacity=".16"/><circle cx="1163.992" cy="313.356" r="22.28" fill="#6bc8dc" class="color6b86dc svgShape" opacity=".16"/><circle cx="432.451" cy="887.318" r="8.323" fill="#fefffd" class="colorfffefd svgShape" opacity=".3"/><circle cx="395.988" cy="897.449" r="10.643" fill="#fefffd" class="colorfffefd svgShape" opacity=".3"/><circle cx="196.744" cy="369.23" r="55.386" fill="#1c9cb8" class="color1cb88c svgShape"/><path fill="#fff" d="M219.886,374.165a23.143,23.143,0,1,1-46.286,0c0-12.781,23.143-44.014,23.143-44.014S219.886,361.383,219.886,374.165Z" class="colorffffff svgShape"/><circle cx="976.088" cy="148.025" r="55.386" fill="#40bfdb" class="color4067db svgShape"/><circle cx="969.376" cy="166.815" r="18.79" fill="#fff" class="colorffffff svgShape"/><rect width="17.189" height="69.558" x="960.781" y="102.074" fill="#fff" class="colorffffff svgShape" rx="6.87" ry="6.87"/><circle cx="969.376" cy="166.815" r="8.257" fill="#40bfdb" class="color4067db svgShape"/><rect width="23.616" height="5.491" x="969.376" y="122.209" fill="#40bfdb" class="color4067db svgShape"/><rect width="19.611" height="5.491" x="985.189" y="132.17" fill="#fff" class="colorffffff svgShape"/><rect width="19.611" height="5.491" x="985.189" y="122.209" fill="#fff" class="colorffffff svgShape"/><circle cx="737.322" cy="313.356" r="55.386" fill="#d85b53" class="colorfdaf2a svgShape"/><circle cx="737.322" cy="313.355" r="23.428" fill="#fff" class="colorffffff svgShape"/><path fill="#fcfcfc" d="M737.322,283.825a3.66,3.66,0,0,1-3.66-3.66v-7.627a3.66,3.66,0,1,1,7.32,0v7.627A3.66,3.66,0,0,1,737.322,283.825Z" class="colorfcfcfc svgShape"/><path fill="#fcfcfc" d="M760.791,293.547A3.66,3.66,0,0,1,758.2,287.3l5.393-5.393a3.66,3.66,0,1,1,5.176,5.176l-5.393,5.393A3.646,3.646,0,0,1,760.791,293.547Z" class="colorfcfcfc svgShape"/><path fill="#fcfcfc" d="M778.139,317.015h-7.627a3.66,3.66,0,0,1,0-7.32h7.627a3.66,3.66,0,0,1,0,7.32Z" class="colorfcfcfc svgShape"/><path fill="#fcfcfc" d="M766.184,345.877a3.646,3.646,0,0,1-2.588-1.072l-5.393-5.393a3.66,3.66,0,0,1,5.176-5.176l5.393,5.393a3.66,3.66,0,0,1-2.588,6.248Z" class="colorfcfcfc svgShape"/><path fill="#fcfcfc" d="M737.322,357.832a3.66,3.66,0,0,1-3.66-3.66v-7.627a3.66,3.66,0,1,1,7.32,0v7.627A3.66,3.66,0,0,1,737.322,357.832Z" class="colorfcfcfc svgShape"/><path fill="#fcfcfc" d="M708.46,345.877a3.66,3.66,0,0,1-2.588-6.248l5.393-5.393a3.66,3.66,0,0,1,5.176,5.176l-5.393,5.393A3.646,3.646,0,0,1,708.46,345.877Z" class="colorfcfcfc svgShape"/><path fill="#fcfcfc" d="M704.132,317.015h-7.627a3.66,3.66,0,1,1,0-7.32h7.627a3.66,3.66,0,0,1,0,7.32Z" class="colorfcfcfc svgShape"/><path fill="#fcfcfc" d="M713.853,293.547a3.646,3.646,0,0,1-2.588-1.072l-5.393-5.393a3.66,3.66,0,1,1,5.176-5.176l5.393,5.393a3.66,3.66,0,0,1-2.588,6.248Z" class="colorfcfcfc svgShape"/><circle cx="373.193" cy="166.815" r="55.386" fill="#bb1b54" class="color571bbb svgShape"/><path fill="#fcfcfc" d="M392.682,173.821c-5.466,0-8.342-2.3-10.652-4.148-1.915-1.532-3.179-2.544-6.079-2.544s-4.164,1.012-6.079,2.544c-2.31,1.848-5.185,4.148-10.651,4.148s-8.34-2.3-10.65-4.148c-1.915-1.532-3.179-2.544-6.078-2.544a3.66,3.66,0,1,1,0-7.32c5.466,0,8.341,2.3,10.651,4.148,1.915,1.531,3.179,2.544,6.077,2.544s4.163-1.012,6.078-2.544c2.31-1.849,5.185-4.148,10.652-4.148s8.342,2.3,10.652,4.148c1.915,1.532,3.179,2.544,6.079,2.544s4.165-1.012,6.08-2.544c2.31-1.848,5.185-4.148,10.651-4.148a3.66,3.66,0,1,1,0,7.32c-2.9,0-4.164,1.012-6.079,2.544C401.024,171.521,398.149,173.821,392.682,173.821Z" class="colorfcfcfc svgShape"/><path fill="#fcfcfc" d="M388.387,150.955a11.979,11.979,0,0,1-8.191-3.179c-1.4-1.12-2.246-1.8-4.249-1.8s-2.845.676-4.244,1.795a12.133,12.133,0,0,1-16.377,0c-1.4-1.12-2.244-1.8-4.246-1.8a3.156,3.156,0,1,1,0-6.312,11.98,11.98,0,0,1,8.189,3.179c1.4,1.12,2.244,1.8,4.246,1.8s2.845-.676,4.244-1.795a12.135,12.135,0,0,1,16.378,0c1.4,1.12,2.246,1.8,4.249,1.8s2.849-.676,4.249-1.8a11.979,11.979,0,0,1,8.191-3.179,3.156,3.156,0,1,1,0,6.312c-2,0-2.849.676-4.249,1.8A11.979,11.979,0,0,1,388.387,150.955Z" class="colorfcfcfc svgShape"/><path fill="#fcfcfc" d="M388.387,193a11.979,11.979,0,0,1-8.191-3.179c-1.4-1.12-2.246-1.8-4.249-1.8s-2.845.676-4.244,1.795a12.133,12.133,0,0,1-16.377,0c-1.4-1.12-2.244-1.8-4.246-1.8a3.156,3.156,0,1,1,0-6.312,11.98,11.98,0,0,1,8.189,3.179c1.4,1.12,2.244,1.8,4.246,1.8s2.845-.676,4.244-1.795a12.135,12.135,0,0,1,16.378,0c1.4,1.12,2.246,1.8,4.249,1.8s2.849-.676,4.249-1.8a11.979,11.979,0,0,1,8.191-3.179,3.156,3.156,0,0,1,0,6.312c-2,0-2.849.676-4.249,1.8A11.979,11.979,0,0,1,388.387,193Z" class="colorfcfcfc svgShape"/><path fill="#b78698" d="M367.4,959.122H183.659a2.305,2.305,0,0,1,0-4.611H367.4a2.305,2.305,0,1,1,0,4.611Z" class="color9786b7 svgShape" opacity=".37"/><path fill="#b78698" d="M928.964,945.479h-450.9a2.305,2.305,0,1,1,0-4.611h450.9a2.305,2.305,0,1,1,0,4.611Z" class="color9786b7 svgShape" opacity=".37"/><rect width="43.391" height="26.162" x="363.241" y="314.843" fill="#d85b53" class="colorfdaf2a svgShape" rx="1.896" ry="1.896"/><rect width="24.886" height="2.552" x="371.27" y="322.881" fill="#fff" class="colorffffff svgShape"/><rect width="24.886" height="2.552" x="371.27" y="329.262" fill="#fff" class="colorffffff svgShape"/><rect width="37.83" height="22.809" x="873.636" y="534.368" fill="#d85b53" class="colorfdaf2a svgShape" rx="1.653" ry="1.653"/><rect width="21.696" height="2.225" x="880.636" y="541.376" fill="#fff" class="colorffffff svgShape"/><rect width="21.696" height="2.225" x="880.636" y="546.939" fill="#fff" class="colorffffff svgShape"/><rect width="40.658" height="24.514" x="226.299" y="477.828" fill="#26d7fe" class="color42dbb2 svgShape" rx="1.776" ry="1.776"/><rect width="23.319" height="2.392" x="233.823" y="485.36" fill="#fff" class="colorffffff svgShape"/><rect width="23.319" height="2.392" x="233.823" y="491.339" fill="#fff" class="colorffffff svgShape"/><rect width="38.512" height="23.221" x="943.46" y="587.398" fill="#26d7fe" class="color42dbb2 svgShape" rx="1.683" ry="1.683"/><rect width="22.088" height="2.265" x="950.586" y="594.532" fill="#fff" class="colorffffff svgShape"/><rect width="22.088" height="2.265" x="950.586" y="600.195" fill="#fff" class="colorffffff svgShape"/><circle cx="271.752" cy="442.361" r="8.936" fill="#6bc8dc" class="color6b86dc svgShape" opacity=".16"/><circle cx="1032.151" cy="736.973" r="8.936" fill="#fff" class="colorffffff svgShape" opacity=".32"/><circle cx="958.34" cy="801.202" r="8.936" fill="#fff" class="colorffffff svgShape" opacity=".32"/><circle cx="351.476" cy="594.532" r="8.936" fill="#e9f9dc" class="colordce4f9 svgShape" opacity=".49"/><circle cx="170.156" cy="721.383" r="8.936" fill="#e9f9dc" class="colordce4f9 svgShape" opacity=".49"/><circle cx="892.55" cy="773.614" r="8.936" fill="#fff" class="colorffffff svgShape" opacity=".32"/><circle cx="943.46" cy="730.32" r="8.936" fill="#fff" class="colorffffff svgShape" opacity=".32"/><circle cx="418.218" cy="468.855" r="8.936" fill="#6bc8dc" class="color6b86dc svgShape" opacity=".16"/><circle cx="579.451" cy="457.884" r="23.274" fill="#e9f9dc" class="colordce4f9 svgShape" opacity=".49"/><circle cx="1052.782" cy="644.974" r="15.303" fill="#6bc8dc" class="color6b86dc svgShape" opacity=".16"/><circle cx="791.527" cy="504.926" r="15.303" fill="#e9f9dc" class="colordce4f9 svgShape" opacity=".49"/><circle cx="986.755" cy="739.625" r="15.303" fill="#6bc8dc" class="color6b86dc svgShape" opacity=".16"/><circle cx="859.584" cy="509.105" r="15.303" fill="#e9f9dc" class="colordce4f9 svgShape" opacity=".49"/><circle cx="317.292" cy="637.685" r="15.303" fill="#e9f9dc" class="colordce4f9 svgShape" opacity=".49"/><path fill="#b78698" d="M400.944,941.911H320.9a2.305,2.305,0,0,1,0-4.611h80.048a2.305,2.305,0,1,1,0,4.611Z" class="color9786b7 svgShape" opacity=".37"/><path fill="#b78698" d="M1159.241,867.19h-80.047a2.305,2.305,0,0,1,0-4.611h80.047a2.305,2.305,0,0,1,0,4.611Z" class="color9786b7 svgShape" opacity=".37"/><path fill="#b78698" d="M520.355,867.19H440.307a2.305,2.305,0,1,1,0-4.611h80.048a2.305,2.305,0,0,1,0,4.611Z" class="color9786b7 svgShape" opacity=".37"/><path fill="#fcfcfc" d="M861.7,635.322a3.661,3.661,0,0,1-1.772-6.866l67.256-37.128a3.66,3.66,0,1,1,3.538,6.409l-67.256,37.128A3.653,3.653,0,0,1,861.7,635.322Z" class="colorfcfcfc svgShape"/><path fill="#fcfcfc" d="M866.224,654.19a3.661,3.661,0,0,1-1.51-7l51.736-23.4a3.66,3.66,0,1,1,3.016,6.67l-51.736,23.4A3.652,3.652,0,0,1,866.224,654.19Z" class="colorfcfcfc svgShape"/><path fill="none" d="M907.6,690.647a20.2,20.2,0,1,0,5.966-.222l-.363.222Z"/><path fill="#d45985" d="M331.9,635.612l-26.032-11.8s5.483,43.846,28.608,56.828a147.079,147.079,0,0,1,14.26-18.579C340.935,655.525,335.545,645.342,331.9,635.612Z" class="colord38876 svgShape"/><path fill="#ff92b9" d="M324.857,698.507a133.383,133.383,0,0,0,7.771-14.895A124.319,124.319,0,0,0,324.857,698.507Z" class="colorffa792 svgShape"/><path fill="#fff" d="M775.175,623.2a3.952,3.952,0,0,0-3,7.312,120.074,120.074,0,0,1,39.461,26.378,3.952,3.952,0,0,0,5.589-5.589A127.9,127.9,0,0,0,775.175,623.2Z" class="colorffffff svgShape"/><path fill="#fff" d="M731.006,617.65a3.963,3.963,0,0,0-3.991-3.914L559.79,615.374a3.953,3.953,0,0,0,.038,7.9h.04l167.225-1.638A3.953,3.953,0,0,0,731.006,617.65Z" class="colorffffff svgShape"/><path fill="#fff" d="M485.864,624h.04l38.4-.375a3.953,3.953,0,0,0-.038-7.9h-.04l-38.4.375a3.953,3.953,0,0,0,.038,7.9Z" class="colorffffff svgShape"/><path fill="#7a042e" d="M332.654,723.839a10.243,10.243,0,1,0,8.312-10.03A10.213,10.213,0,0,0,332.654,723.839Z" class="color04247a svgShape"/><path fill="#d45985" d="M400.281,835.129c-9.225-1.089-18.166-2.046-26.768-2.872q-14.252-1.374-27.278-2.316c-49.512-3.619-85.041-3.062-100.471-2.507-1.158,5.027-2.808,8.549-4.861,9.979,2.6-.929,12.853-3.548,32.648,3.552,24.154,8.666,73.525,16.43,102.2,17.279a143.6,143.6,0,0,0,35.171,18.528c-.56-.939-1.168-1.866-1.833-2.777C401.281,863.282,399.514,848.829,400.281,835.129Z" class="colord38876 svgShape"/><path fill="#d45985" d="M740.746,839.978c-110.638,23.406-221.1,15.107-221.1,15.107q-24.315-5.278-47.251-9.306a42.938,42.938,0,0,0-.673,9.3,102.128,102.128,0,0,1-2.149,30.108,119.106,119.106,0,0,1-5.884,18.948c-2.61,20.647-15.649,39.31-15.649,39.31h39.284s22.581-23.6,30.176-58.258H721.4v58.258l35.024,3.026,10.912-67.105q6.13-1.808,12.031-4.133C759.117,865.745,747.337,853.045,740.746,839.978Z" class="colord38876 svgShape"/><path fill="#d45985" d="M245.765,827.434c2.071-8.988,2.57-22.785.971-38.081-2.739-26.2-10.588-46.857-17.531-46.131s-10.352,22.556-7.613,48.759,10.588,46.857,17.531,46.131a3.793,3.793,0,0,0,1.781-.7C242.958,835.983,244.607,832.461,245.765,827.434Z" class="colord38876 svgShape"/><path fill="#fcaeca" d="M909.86,676.861a33.739,33.739,0,0,0-3.42.319h2.934C909.541,677.074,909.7,676.968,909.86,676.861Z" class="colorfcbfae svgShape"/><path fill="#ff92b9" d="M927.095,680.766c15.066-13.017,17.533-24.956,17.8-26.541l-13.28-2.239.019-.106c-.107.527-2.769,12.637-21.774,24.981-.164.107-.32.213-.486.319H855.25c-23.709-46.9-72.4-79.254-128.287-79.254l-241.1,2.364c-35.6,0-73.676,12.647-104.776,33.763l-56.026-25.387a133.794,133.794,0,0,0,6.842,26.946c3.64,9.73,9.03,19.912,16.836,26.453a147.079,147.079,0,0,0-14.26,18.579q-.933,1.448-1.827,2.914a.321.321,0,0,1-.027.054,133.383,133.383,0,0,1-7.771,14.895c-13.683,23.049-41.675,41.8-95.651,44.715,6.943-.726,14.793,19.928,17.531,46.131,1.6,15.3,1.1,29.093-.971,38.081,15.429-.554,50.959-1.111,100.471,2.507q13.009.949,27.278,2.316c8.6.826,17.543,1.782,26.768,2.872-.768,13.7,1,28.153,8.813,38.864.664.911,1.272,1.838,1.833,2.777,16.479,27.622-10.812,66.678-10.812,66.678H439.4a135.074,135.074,0,0,0,24.292-39.31,119.106,119.106,0,0,0,5.884-18.948,102.128,102.128,0,0,0,2.149-30.108,42.938,42.938,0,0,1,.673-9.3q22.911,4.062,47.251,9.306s110.461,8.3,221.1-15.107c6.591,13.068,18.371,25.767,38.616,35.258,2.848,1.335,5.847,2.614,9.04,3.814l-9.105,64.4,35.023,3.026L830.15,880.4l-1.728-31.309s23.51.61,34.646-61.762h-.008a142.779,142.779,0,0,0-1.853-96.677h22.917a33.675,33.675,0,1,0,42.971-9.881ZM346.357,733.428a10.208,10.208,0,1,1,6.724-9.589A10.168,10.168,0,0,1,346.357,733.428ZM524.3,623.629,485.9,624h-.04a3.953,3.953,0,0,1-.038-7.9l38.4-.375h.04a3.953,3.953,0,0,1,.038,7.9Zm202.79-1.988-167.225,1.638h-.04a3.953,3.953,0,0,1-.038-7.9l167.225-1.638a3.953,3.953,0,0,1,.077,7.9Zm90.131,35.247a3.951,3.951,0,0,1-5.589,0,120.074,120.074,0,0,0-39.461-26.378,3.952,3.952,0,0,1,3-7.312,127.9,127.9,0,0,1,42.049,28.1A3.951,3.951,0,0,1,817.223,656.888Zm94.083,73.836a20.209,20.209,0,0,1-3.707-40.076h5.6l.363-.222a20.212,20.212,0,0,1-2.259,40.3Z" class="colorffa792 svgShape"/><rect width="27.073" height="100.134" x="903.679" y="844.468" fill="#8d2b4e" class="color552b8d svgShape"/><rect width="27.073" height="115.759" x="965.552" y="828.843" fill="#bb1b54" class="color571bbb svgShape"/><rect width="27.073" height="100.134" x="894.291" y="844.468" fill="#db447a" class="color8344db svgShape"/><rect width="27.073" height="52.808" x="834.592" y="891.794" fill="#538a28" class="color288a71 svgShape"/><rect width="27.073" height="52.808" x="825.204" y="891.794" fill="#1c9cb8" class="color1cb88c svgShape"/><rect width="27.073" height="115.759" x="956.164" y="828.843" fill="#6bc8dc" class="color6b86dc svgShape"/><rect width="27.073" height="143.4" x="1025.709" y="801.202" fill="#538a28" class="color288a71 svgShape"/><rect width="27.073" height="143.4" x="1016.32" y="801.202" fill="#68c6db" class="color68dbbe svgShape"/><polygon fill="#6bc8dc" points="1158.016 536.946 1245.148 613.705 1245.255 536.946 1158.016 536.946" class="color6b86dc svgShape"/><polygon fill="#6bc8dc" points="1297.592 487.017 1310.323 494.031 1385.861 494.031 1397.272 372.988 1397.196 372.988 1397.228 373.449 1339.065 373.449 1339.065 373.216 1311.405 373.325 1313.482 373.317 1297.592 487.017" class="color6b86dc svgShape"/><path fill="#6bc8dc" d="M1428.672,372.865l-.7,0-.028.252Q1428.263,373,1428.672,372.865Z" class="color6b86dc svgShape"/><path fill="#6bc8dc" d="M1430.546,533.766l9.5-57.814-12.6-98.338C1418.878,457.216,1423.19,505.133,1430.546,533.766Z" class="color6b86dc svgShape"/><path fill="#6bc8dc" d="M1249.6,440.206c1.845-5.651,12.808,6.473,22.729,19.151,10.1-42.561,15.266-85.938,15.266-85.938l-7.754.029a42.507,42.507,0,0,0-39.932,26.885l9.692,39.872Z" class="color6b86dc svgShape"/><path fill="#fcaeca" d="M1397.228,373.449l-.033-.46-1.42-19.877c-19.16,12.915-42.341,3.583-56.711,3.4v16.94Z" class="colorfcbfae svgShape"/><path fill="#f492b5" d="M1395.776,353.111h0l-1.093-15.306c-11.778,2.831-26.725,3.32-45.414,1.7a79.2,79.2,0,0,1-10.2-1.541v18.547C1353.435,356.694,1376.616,366.026,1395.776,353.111Z" class="colorf4a592 svgShape"/><path fill="#fcaeca" d="M1303.332,178.252v97.039h118.412V249.266a26.583,26.583,0,0,1,0-23.409V181.206c-11.81.075-32.14.135-53.132-.118q-1.565-.016-3.117-.04C1341.019,180.717,1316.172,179.941,1303.332,178.252Zm17.514,56.538c-3.863,0-6.994-6.5-6.994-14.511s3.132-14.511,6.994-14.511,6.995,6.5,6.995,14.511S1324.709,234.789,1320.846,234.789Zm13.379-36.29h-19.418a4.413,4.413,0,0,1,0-8.827h19.418a4.413,4.413,0,0,1,0,8.827Zm6.214,62.668h34.221C1348.587,280.587,1340.439,261.168,1340.439,261.168Zm41.933-26.379c-3.863,0-6.995-6.5-6.995-14.511s3.132-14.511,6.995-14.511,6.994,6.5,6.994,14.511S1386.235,234.789,1382.372,234.789Zm-5.78-45.117h18.536a4.413,4.413,0,0,1,0,8.827h-18.536a4.413,4.413,0,0,1,0-8.827Z" class="colorfcbfae svgShape"/><path fill="#fcaeca" d="M1432.654,275.291h.037c0,.155,0,.306,0,.461l0-.008v-16.97l-.038-.009Z" class="colorfcbfae svgShape"/><path fill="#fcaeca" d="M1421.744,249.266V225.857a26.583,26.583,0,0,0,0,23.409Z" class="colorfcbfae svgShape"/><path fill="#fcaeca" d="M1432.654,216.474v42.29l.038.009a13.675,13.675,0,0,0,3.415.434c9.431,0,17.077-9.691,17.077-21.645,0-11.481-7.054-20.869-15.967-21.595Z" class="colorfcbfae svgShape"/><ellipse cx="1382.372" cy="220.278" fill="#432422" class="color223243 svgShape" rx="6.994" ry="14.511"/><ellipse cx="1320.846" cy="220.278" fill="#432422" class="color223243 svgShape" rx="6.995" ry="14.511"/><path fill="#432422" d="M1374.661,261.168h-34.221S1348.587,280.587,1374.661,261.168Z" class="color223243 svgShape"/><path fill="#432422" d="M1376.593,198.5h18.536a4.413,4.413,0,0,0,0-8.827h-18.536a4.413,4.413,0,0,0,0,8.827Z" class="color223243 svgShape"/><path fill="#432422" d="M1334.225,189.673h-19.418a4.413,4.413,0,0,0,0,8.827h19.418a4.413,4.413,0,0,0,0-8.827Z" class="color223243 svgShape"/><path fill="#7a0e35" d="M1394.683,337.805c27.76-6.672,37.918-26.357,38.005-62.053,0-.155,0-.306,0-.461h-.037V216.474l4.563-.507,5.941-.66c26.611-68.684-31.964-111.77-36.395-102.623-.982,2.027-28.041-2.921-52.585-13.305-58.966-24.948-49.064,4.158-73.189,11.642s14.9,65.7,14.9,65.7c.106.042.238.081.355.122l-.319,100.893c-.347,10.4,1.063,50.962,43.137,60.229a79.2,79.2,0,0,0,10.2,1.541C1367.958,341.125,1382.9,340.636,1394.683,337.805ZM1289.756,141.79c-6.515-27.027,55.917,4.342,82.424,22.453s60.021,12.282,60.021,12.282c-18.183,3.809-41.674,4.788-63.588,4.564,20.991.253,41.322.193,53.132.118v94.085H1303.332V178.252c12.84,1.69,37.687,2.465,62.164,2.8-33.092-.511-61.773-3.63-61.773-3.63S1296.271,168.817,1289.756,141.79Z" class="color380e7a svgShape"/><path fill="#350906" d="M1303.723,177.418s28.68,3.119,61.773,3.63q1.553.024,3.117.04c21.914.225,45.405-.754,63.588-4.564,0,0-33.515,5.83-60.021-12.282s-88.939-49.48-82.424-22.453S1303.723,177.418,1303.723,177.418Z" class="color160635 svgShape"/><path fill="#7a042e" d="M1432.442,633.425l-123.615-84.869-33.238-17.636q-2.334-1.317-4.569-2.606l2.1,8.632h-27.863l-.108,76.759-.179,127.331-.019,0s-27.442,131.576-24.324,201.453h78.735c-.067-7.512.387-13.9,1.5-18.741,9.58-41.513,27.148-97.4,27.148-97.4s24.948,29.974,32.429,106.794c.3,3.055.592,6.176.883,9.342h61.958L1417.3,770.642Z" class="color04247a svgShape"/><polygon fill="#7a042e" points="1312.614 550.566 1448.971 622.919 1448.971 622.919 1312.614 550.566" class="color04247a svgShape"/><path fill="#7a042e" d="M1310.323,494.031l87.969,48.467,30.882-.386,1.372-8.346c-7.357-28.633-11.668-76.55-3.1-156.151l-.526-4.1s.363-.154,1.02-.392l.028-.252c.023-.206.045-.41.068-.616l-30.7.01-.069.726-11.411,121.043Z" class="color04247a svgShape"/><path fill="#7a042e" d="M1289.18,482.382l8.412,4.635,15.89-113.7-2.077.008-23.806.093h0s-5.169,43.378-15.266,85.939C1281.17,470.65,1289.18,482.382,1289.18,482.382Z" class="color04247a svgShape"/><path fill="#6bc8dc" d="M1486.979,412.505c-11.4-52.334-49.671-42.571-58.307-39.641q-.41.139-.728.255c-.657.238-1.02.392-1.02.392l.526,4.1,12.6,98.338,1.984-12.07,16.074,124.31-71.8-45.544,11.983-.15-87.969-48.467-12.731-7.014-8.412-4.635-13.591,48.538,33.238,17.636h0l3.787,2.01,136.357,72.353,16.886,8.96c18.808,7.68,42.147-14.7,40.071-34.912Z" class="color6b86dc svgShape"/><polygon fill="#350906" points="1429.174 542.112 1398.292 542.498 1386.309 542.648 1458.108 588.193 1442.034 463.883 1440.05 475.953 1430.546 533.766 1429.174 542.112" class="color160635 svgShape"/><polygon fill="#350906" points="1312.614 550.566 1308.827 548.556 1308.827 548.556 1432.442 633.425 1417.301 770.642 1423.283 942.487 1443.009 942.487 1436.107 769.832 1448.971 622.919 1448.971 622.919 1312.614 550.566" class="color160635 svgShape"/><path fill="#7a042e" d="M1273.119,536.946l-2.1-8.632c-99.75-57.471-61-76-50.642-81.953,10.509-6.041,29.225,15.711,29.225,15.711s-3.489-11.18,0-21.865l-9.692-39.872-3.193-13.136h-213.3l9.682,39.83c9.033.2,20.666,17.282,22.729,39.973,1.408,15.489-2.873,20.414-7.845,21.26l11.834,48.685h213.3Z" class="color04247a svgShape"/><path fill="#fcaeca" d="M1249.6,440.206h0c-3.489,10.685,0,21.865,0,21.865s-18.716-21.752-29.225-15.711c-10.354,5.952-49.109,24.482,50.642,81.953q2.24,1.291,4.569,2.606l13.591-48.538s-8.01-11.732-16.847-23.025C1262.412,446.679,1251.449,434.555,1249.6,440.206Z" class="colorfcbfae svgShape"/><path fill="#fcaeca" d="M1055.826,467c-2.063-22.691-13.7-39.769-22.729-39.973-4.193-.095-7.827,3.443-9.682,11.752l12.274,46.07s6.6,4.38,12.292,3.411C1052.953,487.414,1057.234,482.489,1055.826,467Z" class="colorfcbfae svgShape"/><circle cx="1141.444" cy="457.884" r="18.621" fill="#fff" class="colorffffff svgShape" opacity=".63"/><path fill="#fcfcfc" d="M1158.668,404.8h-3.533a3.66,3.66,0,1,1,0-7.32h3.533a3.66,3.66,0,1,1,0,7.32Z" class="colorfcfcfc svgShape" opacity=".39"/><path fill="#fcfcfc" d="M1143.439,404.8H1115.9a3.66,3.66,0,1,1,0-7.32h27.541a3.66,3.66,0,1,1,0,7.32Z" class="colorfcfcfc svgShape" opacity=".39"/><path fill="#fcfcfc" d="M1099.77,404.8h-51.693a3.66,3.66,0,0,1,0-7.32h51.693a3.66,3.66,0,1,1,0,7.32Z" class="colorfcfcfc svgShape" opacity=".39"/><rect width="104.19" height="62.82" x="1083.372" y="182.322" fill="#d85b53" class="colorfdaf2a svgShape" rx="4.552" ry="4.552"/><rect width="59.756" height="6.129" x="1102.652" y="201.622" fill="#fff" class="colorffffff svgShape"/><rect width="59.756" height="6.129" x="1102.652" y="216.944" fill="#fff" class="colorffffff svgShape"/><rect width="81.888" height="49.374" x="1184.893" y="281.304" fill="#26d7fe" class="color42dbb2 svgShape" rx="3.578" ry="3.578"/><rect width="46.965" height="4.817" x="1200.045" y="296.474" fill="#fff" class="colorffffff svgShape"/><rect width="46.965" height="4.817" x="1200.045" y="308.516" fill="#fff" class="colorffffff svgShape"/><polygon fill="#7a0e35" points="1066.761 362.586 806.096 169.035 456.916 169.035 456.916 164.595 807.565 164.595 808.154 165.032 1069.409 359.02 1066.761 362.586" class="color380e7a svgShape" opacity=".3"/><polygon fill="#7a0e35" points="988.354 402.936 872.915 319.236 813.582 319.236 813.582 314.795 874.357 314.795 990.961 399.34 988.354 402.936" class="color380e7a svgShape" opacity=".3"/><polygon fill="#7a0e35" points="971.451 456.439 676.262 456.439 591.273 371.45 275.528 371.45 275.528 367.01 593.112 367.01 678.101 451.998 971.451 451.998 971.451 456.439" class="color380e7a svgShape" opacity=".3"/><rect width="4.442" height="209.623" x="1101.833" y="178.835" fill="#7a0e35" class="color380e7a svgShape" opacity=".3" transform="rotate(-50.469 1104.044 283.649)"/><path fill="#26d7fe" d="M1536.362,857.135c31.626-11.005,51.083-37.44,51.083-37.44S1555.627,811.1,1524,822.11c-22.316,7.766-38.561,23.2-46.2,31.625a191.785,191.785,0,0,0,5.99-27.219c7.428-8.178,21.685-26.283,27.112-49.807,7.483-32.436-4.667-62.875-4.667-62.875s-24.282,22.151-31.765,54.587c-5.285,22.907-.779,44.8,2.325,55.7-.5,3.775-1.185,7.808-2.083,12.1-1.062-11.713-4.055-26.86-11.73-41.271-15.667-29.416-44.887-44.587-44.887-44.587s-3.82,32.522,11.847,61.938c11.772,22.1,31.194,36.162,40.124,41.787a270.167,270.167,0,0,1-19.322,45.911c.5-11.558-.251-33.325-10.293-53.955-14.584-29.96-43.231-46.172-43.231-46.172s-5,32.363,9.58,62.323c11.795,24.231,32.783,39.464,40.381,44.406a431.854,431.854,0,0,1-34,51.6c1.863-11.39,3.705-33.165-3.873-54.89-10.969-31.443-37.519-50.859-37.519-50.859s-8.767,31.564,2.2,63.007c8.785,25.183,27.553,42.639,34.682,48.6q-6.182,7.914-13.086,16.141c-7.851,9.343-15.649,18.048-23.062,25.967,1.88-11.3,3.832-33.275-3.819-55.209-10.969-31.443-37.52-50.859-37.52-50.859s-8.767,31.564,2.2,63.007c8.609,24.679,26.811,41.943,34.247,48.232-12.1,12.659-22.892,23-30.828,30.318H1347.4c6.895-6.513,15.2-14.636,24.268-24.073,8.182,4.454,31.343,15.512,58.151,14.548,33.49-1.2,59.962-20.724,59.962-20.724s-27.825-17.569-61.314-16.365c-20.131.723-37.716,8.063-48.55,13.805,6.873-7.406,14.039-15.453,21.246-24.029q6.9-8.213,13.269-16.377c8.2,4.462,31.345,15.5,58.128,14.536,33.49-1.2,59.963-20.724,59.963-20.724s-27.825-17.569-61.315-16.365c-21.818.784-40.65,9.34-51.132,15.21a442.107,442.107,0,0,0,33.449-50.881c8.381,4.533,31.361,15.377,57.919,14.423,33.49-1.2,59.962-20.724,59.962-20.724s-27.825-17.569-61.314-16.365c-23.3.837-43.187,10.534-53.143,16.362a279.385,279.385,0,0,0,18.835-43.685C1484.268,861.992,1510.372,866.179,1536.362,857.135Z" class="color42dbb2 svgShape"/><path fill="#fff" d="M1391.7,283.235c-29.373,52.077-63.692,0-63.692,0Z" class="colorffffff svgShape"/><polygon fill="#7a0e35" points="243.258 942.872 237.213 936.339 440.113 748.635 676.618 808.827 841.199 671.534 1084.234 554.72 1088.09 562.741 846.051 679.076 678.828 818.573 442.606 758.452 243.258 942.872" class="color380e7a svgShape"/><circle cx="441.359" cy="753.543" r="17.211" fill="#9ae45f" class="colorffde17 svgShape"/><circle cx="849.911" cy="668.016" r="17.211" fill="#dc6c94" class="color9b6cdc svgShape"/><circle cx="681.331" cy="814.205" r="17.211" fill="#1c9cb8" class="color1cb88c svgShape"/><circle cx="240.236" cy="939.605" r="17.211" fill="#dc6c94" class="color9b6cdc svgShape"/><circle cx="1086.162" cy="561.457" r="17.211" fill="#40bfdb" class="color4067db svgShape"/></svg>